<svg width="145" height="145" viewBox="0 0 145 145" fill="none" xmlns="http://www.w3.org/2000/svg">
<circle cx="72.0837" cy="72.0837" r="31.5" stroke="white" stroke-width="7"/>
<circle cx="72.5837" cy="71.5837" r="44" stroke="white" stroke-width="7"/>
<circle cx="72.5837" cy="71.5837" r="54" stroke="white" stroke-width="7"/>
<circle cx="72.0837" cy="72.0837" r="66.5" stroke="white" stroke-width="7"/>
<path d="M76.1699 112.88C69.3713 113.561 62.5103 112.532 56.2105 109.886C49.9107 107.241 44.3719 103.063 40.0974 97.7329C35.823 92.4024 32.9485 86.0881 31.7353 79.3641C30.522 72.64 31.0084 65.7194 33.1503 59.2311L40.1229 61.5329C38.3646 66.8592 37.9653 72.5404 38.9613 78.0602C39.9573 83.5801 42.3169 88.7635 45.8259 93.1394C49.3348 97.5152 53.8817 100.945 59.0532 103.116C64.2248 105.288 69.8571 106.132 75.4381 105.573L76.1699 112.88Z" fill="black"/>
<path d="M31.5382 41.1473C37.4008 33.4637 45.326 27.6041 54.3905 24.2512C63.4551 20.8982 73.2857 20.1899 82.7373 22.2088L81.7487 26.837C73.1742 25.0054 64.2557 25.648 56.0324 28.6898C47.809 31.7316 40.6192 37.0474 35.3006 44.018L31.5382 41.1473Z" fill="black"/>
</svg>
